<svg id="visual" viewBox="0 0 900 600" width="900" height="600" xmlns="http://www.w3.org/2000/svg" xmlns:xlink="http://www.w3.org/1999/xlink" version="1.1"><g stroke-width="1" stroke-linejoin="bevel"><path d="M391 321L401 210L337 277Z" fill="#19435d" stroke="#19435d"></path><path d="M401 210L291 237L337 277Z" fill="#246688" stroke="#246688"></path><path d="M391 321L515 261L401 210Z" fill="#081a28" stroke="#081a28"></path><path d="M291 237L321 389L337 277Z" fill="#205a7a" stroke="#205a7a"></path><path d="M337 277L321 389L391 321Z" fill="#277297" stroke="#277297"></path><path d="M391 321L479 384L515 261Z" fill="#112e42" stroke="#112e42"></path><path d="M381 99L325 137L401 210Z" fill="#297ea6" stroke="#297ea6"></path><path d="M401 210L325 137L291 237Z" fill="#205a7a" stroke="#205a7a"></path><path d="M425 410L479 384L391 321Z" fill="#205a7a" stroke="#205a7a"></path><path d="M321 389L425 410L391 321Z" fill="#205a7a" stroke="#205a7a"></path><path d="M526 130L381 99L401 210Z" fill="#00101c" stroke="#00101c"></path><path d="M515 261L532 169L401 210Z" fill="#297ea6" stroke="#297ea6"></path><path d="M325 137L237 169L291 237Z" fill="#19435d" stroke="#19435d"></path><path d="M291 237L164 311L321 389Z" fill="#0c2435" stroke="#0c2435"></path><path d="M171 83L237 169L325 137Z" fill="#205a7a" stroke="#205a7a"></path><path d="M532 169L526 130L401 210Z" fill="#205a7a" stroke="#205a7a"></path><path d="M612 325L586 237L515 261Z" fill="#0c2435" stroke="#0c2435"></path><path d="M515 261L586 237L532 169Z" fill="#277297" stroke="#277297"></path><path d="M532 169L560 125L526 130Z" fill="#297ea6" stroke="#297ea6"></path><path d="M221 436L338 469L321 389Z" fill="#112e42" stroke="#112e42"></path><path d="M321 389L338 469L425 410Z" fill="#15384f" stroke="#15384f"></path><path d="M425 410L517 484L479 384Z" fill="#112e42" stroke="#112e42"></path><path d="M586 237L560 125L532 169Z" fill="#1d4e6b" stroke="#1d4e6b"></path><path d="M507 0L375 0L381 99Z" fill="#205a7a" stroke="#205a7a"></path><path d="M479 384L612 325L515 261Z" fill="#1d4e6b" stroke="#1d4e6b"></path><path d="M706 64L580 0L560 125Z" fill="#112e42" stroke="#112e42"></path><path d="M602 414L612 325L479 384Z" fill="#15384f" stroke="#15384f"></path><path d="M237 169L164 311L291 237Z" fill="#0c2435" stroke="#0c2435"></path><path d="M164 311L221 436L321 389Z" fill="#112e42" stroke="#112e42"></path><path d="M435 520L517 484L425 410Z" fill="#00101c" stroke="#00101c"></path><path d="M517 484L602 414L479 384Z" fill="#081a28" stroke="#081a28"></path><path d="M396 600L435 520L338 469Z" fill="#1d4e6b" stroke="#1d4e6b"></path><path d="M338 469L435 520L425 410Z" fill="#297ea6" stroke="#297ea6"></path><path d="M136 169L130 295L164 311Z" fill="#112e42" stroke="#112e42"></path><path d="M164 311L86 392L221 436Z" fill="#19435d" stroke="#19435d"></path><path d="M507 0L381 99L526 130Z" fill="#205a7a" stroke="#205a7a"></path><path d="M381 99L264 0L325 137Z" fill="#205a7a" stroke="#205a7a"></path><path d="M237 169L136 169L164 311Z" fill="#0c2435" stroke="#0c2435"></path><path d="M171 83L136 169L237 169Z" fill="#1d4e6b" stroke="#1d4e6b"></path><path d="M264 0L171 83L325 137Z" fill="#1d4e6b" stroke="#1d4e6b"></path><path d="M560 125L507 0L526 130Z" fill="#297ea6" stroke="#297ea6"></path><path d="M375 0L264 0L381 99Z" fill="#246688" stroke="#246688"></path><path d="M264 0L236 0L171 83Z" fill="#246688" stroke="#246688"></path><path d="M90 505L211 533L221 436Z" fill="#246688" stroke="#246688"></path><path d="M221 436L211 533L338 469Z" fill="#297ea6" stroke="#297ea6"></path><path d="M725 164L560 125L586 237Z" fill="#297ea6" stroke="#297ea6"></path><path d="M560 125L580 0L507 0Z" fill="#15384f" stroke="#15384f"></path><path d="M517 600L576 534L517 484Z" fill="#19435d" stroke="#19435d"></path><path d="M517 484L576 534L602 414Z" fill="#15384f" stroke="#15384f"></path><path d="M517 600L517 484L435 520Z" fill="#0c2435" stroke="#0c2435"></path><path d="M0 270L86 392L130 295Z" fill="#0c2435" stroke="#0c2435"></path><path d="M130 295L86 392L164 311Z" fill="#246688" stroke="#246688"></path><path d="M171 83L84 139L136 169Z" fill="#297ea6" stroke="#297ea6"></path><path d="M136 169L0 270L130 295Z" fill="#1d4e6b" stroke="#1d4e6b"></path><path d="M0 131L84 139L72 0Z" fill="#19435d" stroke="#19435d"></path><path d="M326 600L396 600L338 469Z" fill="#205a7a" stroke="#205a7a"></path><path d="M211 533L326 600L338 469Z" fill="#0c2435" stroke="#0c2435"></path><path d="M713 428L732 302L612 325Z" fill="#1d4e6b" stroke="#1d4e6b"></path><path d="M612 325L732 302L586 237Z" fill="#19435d" stroke="#19435d"></path><path d="M713 428L612 325L602 414Z" fill="#19435d" stroke="#19435d"></path><path d="M732 302L725 164L586 237Z" fill="#112e42" stroke="#112e42"></path><path d="M396 600L517 600L435 520Z" fill="#246688" stroke="#246688"></path><path d="M706 499L602 414L576 534Z" fill="#0c2435" stroke="#0c2435"></path><path d="M706 499L713 428L602 414Z" fill="#205a7a" stroke="#205a7a"></path><path d="M725 164L706 64L560 125Z" fill="#1d4e6b" stroke="#1d4e6b"></path><path d="M713 428L763 335L732 302Z" fill="#277297" stroke="#277297"></path><path d="M732 302L820 222L725 164Z" fill="#205a7a" stroke="#205a7a"></path><path d="M725 164L779 101L706 64Z" fill="#277297" stroke="#277297"></path><path d="M121 600L214 600L211 533Z" fill="#1d4e6b" stroke="#1d4e6b"></path><path d="M211 533L214 600L326 600Z" fill="#1d4e6b" stroke="#1d4e6b"></path><path d="M86 392L90 505L221 436Z" fill="#15384f" stroke="#15384f"></path><path d="M0 187L0 270L136 169Z" fill="#1d4e6b" stroke="#1d4e6b"></path><path d="M86 392L0 474L90 505Z" fill="#1d4e6b" stroke="#1d4e6b"></path><path d="M613 600L706 499L576 534Z" fill="#15384f" stroke="#15384f"></path><path d="M713 428L784 438L763 335Z" fill="#15384f" stroke="#15384f"></path><path d="M0 131L0 187L84 139Z" fill="#00101c" stroke="#00101c"></path><path d="M84 139L0 187L136 169Z" fill="#081a28" stroke="#081a28"></path><path d="M517 600L613 600L576 534Z" fill="#297ea6" stroke="#297ea6"></path><path d="M72 0L84 139L171 83Z" fill="#1d4e6b" stroke="#1d4e6b"></path><path d="M236 0L72 0L171 83Z" fill="#277297" stroke="#277297"></path><path d="M0 270L0 411L86 392Z" fill="#00101c" stroke="#00101c"></path><path d="M820 222L779 101L725 164Z" fill="#15384f" stroke="#15384f"></path><path d="M706 64L734 0L580 0Z" fill="#00101c" stroke="#00101c"></path><path d="M810 464L784 438L706 499Z" fill="#277297" stroke="#277297"></path><path d="M706 499L784 438L713 428Z" fill="#277297" stroke="#277297"></path><path d="M763 335L820 222L732 302Z" fill="#15384f" stroke="#15384f"></path><path d="M900 330L820 222L763 335Z" fill="#1d4e6b" stroke="#1d4e6b"></path><path d="M90 505L121 600L211 533Z" fill="#081a28" stroke="#081a28"></path><path d="M0 600L121 600L90 505Z" fill="#081a28" stroke="#081a28"></path><path d="M773 0L734 0L706 64Z" fill="#277297" stroke="#277297"></path><path d="M0 411L0 474L86 392Z" fill="#277297" stroke="#277297"></path><path d="M613 600L690 600L706 499Z" fill="#19435d" stroke="#19435d"></path><path d="M810 600L810 464L706 499Z" fill="#19435d" stroke="#19435d"></path><path d="M900 375L900 330L763 335Z" fill="#15384f" stroke="#15384f"></path><path d="M900 0L773 0L779 101Z" fill="#19435d" stroke="#19435d"></path><path d="M779 101L773 0L706 64Z" fill="#1d4e6b" stroke="#1d4e6b"></path><path d="M72 0L0 0L0 131Z" fill="#112e42" stroke="#112e42"></path><path d="M900 375L763 335L784 438Z" fill="#081a28" stroke="#081a28"></path><path d="M820 222L900 163L779 101Z" fill="#00101c" stroke="#00101c"></path><path d="M0 474L0 600L90 505Z" fill="#1d4e6b" stroke="#1d4e6b"></path><path d="M900 330L900 163L820 222Z" fill="#205a7a" stroke="#205a7a"></path><path d="M810 464L900 375L784 438Z" fill="#112e42" stroke="#112e42"></path><path d="M900 534L900 375L810 464Z" fill="#081a28" stroke="#081a28"></path><path d="M900 163L900 121L779 101Z" fill="#297ea6" stroke="#297ea6"></path><path d="M690 600L810 600L706 499Z" fill="#1d4e6b" stroke="#1d4e6b"></path><path d="M900 121L900 0L779 101Z" fill="#0c2435" stroke="#0c2435"></path><path d="M810 600L900 534L810 464Z" fill="#205a7a" stroke="#205a7a"></path><path d="M810 600L900 600L900 534Z" fill="#246688" stroke="#246688"></path></g></svg>